<svg xmlns="http://www.w3.org/2000/svg" viewBox="0 0 128 128" fill="none">
  <rect width="128" height="128" fill="white"/>
  <rect x="16" y="16" width="32" height="32" rx="4" fill="#1a1a1a"/>
  <rect x="80" y="16" width="32" height="32" rx="4" fill="#1a1a1a"/>
  <rect x="16" y="80" width="32" height="32" rx="4" fill="#1a1a1a"/>
  <rect x="24" y="24" width="16" height="16" rx="2" fill="white"/>
  <rect x="88" y="24" width="16" height="16" rx="2" fill="white"/>
  <rect x="24" y="88" width="16" height="16" rx="2" fill="white"/>
  <rect x="28" y="28" width="8" height="8" fill="#1a1a1a"/>
  <rect x="92" y="28" width="8" height="8" fill="#1a1a1a"/>
  <rect x="28" y="92" width="8" height="8" fill="#1a1a1a"/>
  <rect x="56" y="16" width="8" height="8" fill="#1a1a1a"/>
  <rect x="56" y="32" width="8" height="8" fill="#1a1a1a"/>
  <rect x="56" y="56" width="8" height="8" fill="#1a1a1a"/>
  <rect x="64" y="48" width="8" height="8" fill="#1a1a1a"/>
  <rect x="72" y="56" width="8" height="8" fill="#1a1a1a"/>
  <rect x="80" y="64" width="8" height="8" fill="#1a1a1a"/>
  <rect x="56" y="72" width="8" height="8" fill="#1a1a1a"/>
  <rect x="80" y="80" width="8" height="8" fill="#1a1a1a"/>
  <rect x="96" y="80" width="8" height="8" fill="#1a1a1a"/>
  <rect x="64" y="96" width="8" height="8" fill="#1a1a1a"/>
  <rect x="80" y="96" width="8" height="8" fill="#1a1a1a"/>
  <rect x="96" y="96" width="8" height="8" fill="#1a1a1a"/>
</svg>
